<svg xmlns="http://www.w3.org/2000/svg" width="118.375" height="90" viewBox="0 0 118.375 90">
    <defs>
        <style>
            .cls-1{fill:#546223}
        </style>
    </defs>
    <g id="Logo" transform="translate(-52.786 -174.294)">
        <g id="Group_4" transform="translate(52.786 174.294)">
            <path id="Path_33" d="M102.657 194.776a.712.712 0 0 0 .65-.767.729.729 0 0 0-.766-.651c-.059 0-7.112.586-13.427 1.227l-.487.049.121-.474c.448-1.738.91-3.412 1.424-5.158.051-.171.084-.282.1-.342.384-1.5.733-3.538-.671-4.008a1.313 1.313 0 0 0-.415-.063c-1.633 0-4.622 2.589-8.419 7.29l-.657.815.051-1.046c.477-9.652-2.427-15.854-7.967-17.018a15.6 15.6 0 0 0-3.18-.337 14.584 14.584 0 0 0-11.814 6.216c-4.668 6.255-6.692 17.529-.693 28.615a102.821 102.821 0 0 0 5.534 8.667c4 5.83 8.968 13.087 6.762 17.046a4.409 4.409 0 0 1-3.961 2.157 6.194 6.194 0 0 1-1.61-.22c-1.393-.371-5.932-2.153-5.833-9.52a.712.712 0 0 0-1.425-.019c-.089 6.669 3.5 10.012 6.89 10.916a8.1 8.1 0 0 0 2.1.281 5.876 5.876 0 0 0 5.305-2.789c2.573-4.613-2.107-11.441-7.071-18.681-1.951-2.85-3.968-5.8-5.439-8.514-5.7-10.535-3.814-21.194.583-27.086a12.607 12.607 0 0 1 10.355-5.43 15.4 15.4 0 0 1 3.158.341c7.653 1.606 7.193 13.461 6.639 18.483l-.01.091-.053.074a73.3 73.3 0 0 0-8.018 13.313c-1.275 3.051-1.53 5.13-.777 6.357a2.954 2.954 0 0 0 2.3 1.253c3.25 0 6.764-11.706 7.851-20.059v-.284l.068-.089c3.711-4.919 7.357-8.758 8.865-9.336l.441-.169.022.472a6.988 6.988 0 0 1-.29 1.939l-.351 1.19c-.392 1.319-.929 3.125-1.418 5.053l-.058.23-.236.025c-1.607.174-3.029.348-4.177.506a.714.714 0 0 0-.609.8.744.744 0 0 0 .8.607c.955-.131 2.091-.273 3.381-.419l.481-.054-.111.471c-2.662 11.3-4.842 26.675-.122 35.741a.709.709 0 0 0 .63.383.725.725 0 0 0 .331-.082.712.712 0 0 0 .3-.96c-4.568-8.776-2.265-24.135.472-35.474l.057-.235.241-.025c5.065-.523 10.966-1.035 14.031-1.293zM77.724 199.5c-1.616 8.161-4.761 14.783-5.981 14.783a1.006 1.006 0 0 1-.9-.44c-.275-.447-.529-1.7.878-5.061a80.7 80.7 0 0 1 6.325-11.18z" transform="translate(-52.786 -174.294)"/>
            <path id="Path_34" d="M366 477.8a29.458 29.458 0 0 0-6.6-1.644c-.177-5.213-.7-9.54-1.5-11.629-.159-.413-.644-1.671-1.673-1.718-1.967-.088-3.656 2.452-5.591 5.4-1.767 2.687-3.771 5.735-5.386 5.289-2.174-.6-2.462-8.531-1.973-13.975a.712.712 0 1 0-1.418-.128 59.375 59.375 0 0 0-.153 7.075c.228 5.131 1.263 7.879 3.167 8.4 2.618.72 4.821-2.637 6.953-5.881 1.481-2.254 3.128-4.813 4.275-4.769.914.517 1.637 5.4 1.884 11.82-4.972-.243-10.134 1.414-12.691 8.113-3.554 9.314.066 24.864 4.961 26.8a3.311 3.311 0 0 0 3.771-.875c4.12-4.082 5.681-20.284 5.418-32.511a28.56 28.56 0 0 1 6.074 1.571.712.712 0 0 0 .482-1.338zm-11.613 29.187c-1.636 3.425-3.127 2.835-3.616 2.641-3.45-1.365-7.76-15.522-4.155-24.97 1.837-4.814 5.4-7.252 10.468-7.252q.461 0 .938.027c.264 10.067-.613 23.219-3.64 29.554z" transform="translate(-303.53 -421.209)"/>
            <path id="Path_35" d="M542.79 270.71l-.068-.028-.049-.055a.741.741 0 0 0-.567-.241l-.2.046a55.179 55.179 0 0 1-13.872 3.691c-.769.074-1.51.111-2.2.111-3.671 0-5.521-1.049-6.466-1.977l-.218-.261.277-.2c2.492-1.776 5.446-4.543 5.36-7.639a2.752 2.752 0 0 0-.9-2.074 2.705 2.705 0 0 0-1.821-.831c-.072-.006-.143-.008-.215-.008-.1 0-.194 0-.29.014-1.539.148-3.111 1.5-4.1 3.527-.824 1.68-1.4 4.41-.328 6.573l.128.229c-4.52 3.341-8.121 4.128-10.7 2.315a9.732 9.732 0 0 1-3.226-5.01l1.772-2.36.053-.07.139-.186c6.278-8.519 11.848-27.667 8.6-34.592a3.122 3.122 0 0 0-2.899-2.091c-3.97 0-6.6 6.442-7.809 10.281a63.608 63.608 0 0 0-2.712 20.044c.17 5.34 1.222 12.3 5.266 15.139a6.6 6.6 0 0 0 3.878 1.216c2.411 0 5.2-1.156 8.348-3.459l.391.452c.161.155.339.308.519.451l.164.12a11.155 11.155 0 0 0 6.792 1.821c.725 0 1.5-.039 2.3-.116a52.708 52.708 0 0 0 12.369-3.083c.867-.286 1.592-.543 2.123-.742a.584.584 0 0 0 .4-.58.5.5 0 0 0-.239-.427zm-38.262-30.41c1.838-5.822 4.255-9.3 6.466-9.3H511c.256 0 1.011.009 1.609 1.283 3.035 6.471-2.58 25.321-8.571 33.315l-1.218 1.54c-1.768-7.267-.985-18.312 1.708-26.838zm14.288 30.079l-.37.281-.166-.6a7.276 7.276 0 0 1 1.421-5.9 5.312 5.312 0 0 1 1.4-1.331 2.026 2.026 0 0 1 .578-.162h.1a1.485 1.485 0 0 1 1.346.867c.384 1.675-1.546 4.743-4.309 6.843z" transform="translate(-441.375 -222.296)"/>
        </g>
        <g id="Group_5" transform="translate(118.288 193.497)">
            <path id="Path_36" d="M669.138 363.512l-2.883.971 1.321 3.922.582-.2-.575-1.707 2.078-.7-.181-.537-2.078.7-.384-1.142 2.3-.775z" class="cls-1" transform="translate(-650.807 -357.747)"/>
            <path id="Path_37" d="M725.889 357.824a2.142 2.142 0 1 0 2.041 2.232 2.173 2.173 0 0 0-2.041-2.232zm-.166 3.719a1.583 1.583 0 1 1 1.587-1.515 1.575 1.575 0 0 1-1.587 1.516z" class="cls-1" transform="translate(-700.622 -352.808)"/>
            <path id="Path_38" d="M785.474 371.494a1.409 1.409 0 0 0-.848-1.86l-1.588-.713-1.7 3.774.555.249.59-1.313.868.39.333 1.728.637.286-.347-1.8a1.328 1.328 0 0 0 1.5-.741zm-1.8.05l-.956-.429.642-1.428.956.429c.544.245.791.679.591 1.124s-.688.549-1.231.304z" class="cls-1" transform="translate(-750.708 -362.442)"/>
            <path id="Path_39" d="M845.731 426.14a2.388 2.388 0 0 0 .473 1.766 1.293 1.293 0 0 0 1.881.488c.6-.438.483-1.063.151-1.843-.271-.645-.375-1.01-.063-1.238a.714.714 0 0 1 .972.266 1.779 1.779 0 0 1 .293 1.256l.576.011a2.2 2.2 0 0 0-.423-1.565 1.3 1.3 0 0 0-1.829-.437c-.6.441-.475 1.043-.137 1.84.283.651.365 1.017.049 1.249-.267.2-.684.136-1.023-.326a1.91 1.91 0 0 1-.338-1.44z" class="cls-1" transform="translate(-806.581 -410.797)"/>
            <path id="Path_40" d="M872.794 475.606l2.3-.641-.163-.586-2.309.644a1.777 1.777 0 1 0 .954 3.423l2.309-.644-.165-.592-2.3.641a1.17 1.17 0 1 1-.626-2.246z" class="cls-1" transform="translate(-828.773 -453.984)"/>
            <path id="Path_41" d="M879.533 540.933a1.068 1.068 0 0 0 1.143-1.072l.2-1.954-4.118-.414-.2 2.032a1.157 1.157 0 0 0 .994 1.377 1.189 1.189 0 0 0 1.137-.649.992.992 0 0 0 .844.68zm-.556-1.394l.12-1.2 1.181.119-.121 1.2a.6.6 0 1 1-1.181-.119zm-.524.038a.688.688 0 1 1-1.355-.136l.129-1.289 1.355.136z" class="cls-1" transform="translate(-833.344 -508.771)"/>
            <path id="Path_42" d="M863.383 592.6l.259.514a2.195 2.195 0 0 0 1.185-1.105 1.3 1.3 0 0 0-.469-1.821c-.672-.326-1.144.068-1.691.739-.443.555-.729.8-1.081.627-.3-.145-.44-.542-.19-1.056a1.91 1.91 0 0 1 1.114-.972l-.246-.528a2.388 2.388 0 0 0-1.34 1.244 1.293 1.293 0 0 0 .448 1.891c.667.323 1.166-.07 1.7-.729.443-.541.718-.8 1.065-.635a.714.714 0 0 1 .219.983 1.781 1.781 0 0 1-.973.848z" class="cls-1" transform="translate(-819.603 -553.479)"/>
            <path id="Path_43" d="M832.164 637.423l2.491 2.56-.975.95.395.406 2.383-2.319-.395-.406-.971.945L832.6 637z" class="cls-1" transform="translate(-794.823 -595.145)"/>
            <path id="Path_44" d="M781.257 664.9l.614-.278-.087-4.5-.614.278.018.917-1.964.889-.677-.619-.615.278zm-.057-2.989l.041 2.136-1.578-1.441z" class="cls-1" transform="translate(-747.747 -615.218)"/>
            <path id="Path_45" d="M728.785 683.13l-.176-4.13-.608.026.134 3.135-2.51-3.034-.608.026.176 4.134.608-.026-.134-3.135 2.511 3.034z" class="cls-1" transform="translate(-701.814 -631.601)"/>
            <path id="Path_46" d="M664.045 673.571a2.141 2.141 0 1 0 1.4-4.045 2.145 2.145 0 0 0-1.653.115l.27.527a1.5 1.5 0 0 1 1.2-.113 1.582 1.582 0 0 1-1.037 2.987 1.5 1.5 0 0 1-.872-.832l-.538.247a2.122 2.122 0 0 0 1.23 1.114z" class="cls-1" transform="translate(-647.823 -623.281)"/>
            <path id="Path_47" d="M616.36 641.039l-2.353-1.928-.359.438 1.878 1.538-.8.974-1.7-1.389-.359.438 1.7 1.39-.748.913-1.878-1.538-.359.438 2.353 1.928z" class="cls-1" transform="translate(-603.176 -596.98)"/>
            <path id="Path_48" d="M596.279 331.027a28.159 28.159 0 0 0-18.73-10.945 28.881 28.881 0 0 0-3.859-.26 28.057 28.057 0 0 0-11.911 2.625.276.276 0 0 0-.144.156.272.272 0 0 0 .009.211.278.278 0 0 0 .251.161.271.271 0 0 0 .117-.026 27.478 27.478 0 0 1 11.665-2.575 28.108 28.108 0 0 1 3.8.259 27.791 27.791 0 0 1-3.741 55.324 28.379 28.379 0 0 1-3.8-.257 28.027 28.027 0 0 1-20.184-13.441l-.012.007-.036-.073a.282.282 0 0 0-.245-.16.276.276 0 0 0-.275.251.264.264 0 0 0 .039.157l.029.061a28.582 28.582 0 0 0 20.609 13.746q.61.083 1.22.141c.89.084 1.792.126 2.681.126a28.347 28.347 0 0 0 22.52-45.486z" class="cls-1" transform="translate(-549.179 -319.821)"/>
        </g>
    </g>
</svg>
